# xmcd
#
# Track frame offsets:
#	150
#	23702
#	41098
#	59249
#	85284
#	102329
#	123743
#	145528
#	163906
#	174879
#	190131
#	200005
#	222878
#	245487
#	278117
#	308592
#
# Disc length: 4434 seconds
#
# Revision: 0
# Processed by: cddbd v1.5.2PL0 Copyright (c) Steve Scherf et al.
# Submitted via: audiograbber 1.83.01
#
DISCID=ea115010
DTITLE=Awek - The Early Years CD 1
DYEAR=1900
DGENRE=
TTITLE0=back to the same place
TTITLE1=power
TTITLE2=shakespeare
TTITLE3=someday after awhile
TTITLE4=hush
TTITLE5=what passes for love
TTITLE6=lay down sally
TTITLE7=born to love you
TTITLE8=mood
TTITLE9=man of many words
TTITLE10=onions
TTITLE11=bouger
TTITLE12=home
TTITLE13=I've been searching
TTITLE14=since my baby left me
TTITLE15=rambling and drinking
EXTD=
EXTT0=
EXTT1=
EXTT2=
EXTT3=
EXTT4=
EXTT5=
EXTT6=
EXTT7=
EXTT8=
EXTT9=
EXTT10=
EXTT11=
EXTT12=
EXTT13=
EXTT14=
EXTT15=
PLAYORDER=
